{"title":"Penthouse North 2013 720p BluRay x264 DTS PFa DUAL BRENYS","uid":10461591,"size":4920622162,"categoryP":"video","categoryS":"hd___movies","magnet":"?xt=urn:btih:ecf47e30e044ca8644007206d8970c695794d2c5&amp;dn=Penthouse+North+2013+720p+BluRay+x264+DTS+PFa+DUAL+BRENYS&amp;tr=udp%3A%2F%2Ftracker.openbittorrent.com%3A80&amp;tr=udp%3A%2F%2Fopen.demonii.com%3A1337&amp;tr=udp%3A%2F%2Ftracker.coppersurfer.tk%3A6969&amp;tr=udp%3A%2F%2Fexodus.desync.com%3A6969","seeders":1,"leechers":1,"uploader":"Alemao99","files":5,"time":1404142142,"description":"Sara Taylor a photojournalist who was blinded during the war in Iraq, is forced into a deadly game of cat and mouse with the sadistic Hollander and his violent accomplice Chad - two men who will not stop until they get what they want ... a fortune in stolen diamonds that are hidden in Sara's apartment. Sara swore not know where the diamonds are, Hollander but does not give up, and using psychological games and physical torture, will apply their horrible tricks in order to break the resistance of Sara. But though blind, Sara is not a helpless woman. She fights. As the suspense builds to a shattering climax, Sara causes a blackout that plunges the entire apartment into darkness. Now, the advantage is on your side. But will it be enough to save her? \n\nTitle in Brazil: Prey in the Darkness \nOriginal title: Penthouse North \nRelease Year: 2013 \nGenre: Action / Thriller \nDuration: 101 minutes \nDirected by: Joseph Ruben \nIMDB: http://www.imdb.com/title/tt2055709/ \n\nSize: 4.58 GB \nFile Extension:. MKV \nVideo Quality: Blu-Ray \nVideo codec: H.264 / AVC \nAudio Codec: AC3/DTS \nResolution: 1280 x 720 \nAudio Language: Portuguese / English \nSubtitles: Portuguese\n\n\nFormat                                   : Matroska\nFormat version                           : Version 4 / Version 2\nFile size                                : 4.58 GiB\nDuration                                 : 1h 25mn\nOverall bit rate                         : 7 679 Kbps\nMovie name                               : Presa.na.Escuridao.2014.720p.BluRay.x264.PFa.DUAL-BRENYS\nEncoded date                             : UTC 2014-06-25 03:18:00\nWriting application                      : mkvmerge v6.3.0 ('You can't stop me!') built on Jun 27 2013 22:06:07\nWriting library                          : libebml v1.3.0 + libmatroska v1.4.0\n\nVideo\nID                                       : 1\nFormat                                   : AVC\nFormat/Info                              : Advanced Video Codec\nFormat profile                           : &lt;a class=&quot;__cf_email__&quot; href=&quot;/cdn-cgi/l/email-protection&quot; data-cfemail=&quot;6921000e0129255d4758&quot;&gt;[email&amp;#160;protected]&lt;/a&gt;&lt;script cf-hash='f9e31' type=&quot;text/javascript&quot;&gt;\n/* &lt;![CDATA[ */!function(){try{var t=&quot;currentScript&quot;in document?document.currentScript:function(){for(var t=document.getElementsByTagName(&quot;script&quot;),e=t.length;e--;)if(t[e].getAttribute(&quot;cf-hash&quot;))return t[e]}();if(t&amp;&amp;t.previousSibling){var e,r,n,i,c=t.previousSibling,a=c.getAttribute(&quot;data-cfemail&quot;);if(a){for(e=&quot;&quot;,r=parseInt(a.substr(0,2),16),n=2;a.length-n;n+=2)i=parseInt(a.substr(n,2),16)^r,e+=String.fromCharCode(i);e=document.createTextNode(e),c.parentNode.replaceChild(e,c)}}}catch(u){}}();/* ]]&gt; */&lt;/script&gt;\nFormat settings, CABAC                   : Yes\nFormat settings, ReFrames                : 5 frames\nCodec ID                                 : V_MPEG4/ISO/AVC\nDuration                                 : 1h 25mn\nBit rate                                 : 5 786 Kbps\nWidth                                    : 1 280 pixels\nHeight                                   : 720 pixels\nDisplay aspect ratio                     : 16:9\nFrame rate                               : 23.976 fps\nColor space                              : YUV\nChroma subsampling                       : 4:2:0\nBit depth                                : 8 bits\nScan type                                : Progressive\nBits/(Pixel*Frame)                       : 0.262\nStream size                              : 3.36 GiB (73%)\nWriting library                          : x264 core 133 r2334 a3ac64b\nEncoding settings                        : cabac=1 / ref=5 / deblock=1:0:0 / analyse=0x3:0x133 / me=umh / subme=8 / psy=1 / psy_rd=1.00:0.00 / mixed_ref=1 / me_range=16 / chroma_me=1 / trellis=1 / 8x8dct=1 / cqm=0 / deadzone=21,11 / fast_pskip=0 / chroma_qp_offset=-2 / threads=12 / lookahead_threads=2 / sliced_threads=0 / nr=0 / decimate=1 / interlaced=0 / bluray_compat=0 / constrained_intra=0 / bframes=3 / b_pyramid=2 / b_adapt=1 / b_bias=0 / direct=1 / weightb=1 / open_gop=0 / weightp=2 / keyint=250 / keyint_min=23 / scenecut=40 / intra_refresh=0 / rc_lookahead=40 / rc=2pass / mbtree=1 / bitrate=5786 / ratetol=1.0 / qcomp=0.60 / qpmin=0 / qpmax=69 / qpstep=4 / cplxblur=20.0 / qblur=0.5 / ip_ratio=1.40 / aq=1:1.00\nDefault                                  : Yes\nForced                                   : No\n\nAudio #1\nID                                       : 2\nFormat                                   : AC-3\nFormat/Info                              : Audio Coding 3\nMode extension                           : CM (complete main)\nFormat settings, Endianness              : Big\nCodec ID                                 : A_AC3\nDuration                                 : 1h 25mn\nBit rate mode                            : Constant\nBit rate                                 : 384 Kbps\nChannel(s)                               : 6 channels\nChannel positions                        : Front: L C R, Side: L R, LFE\nSampling rate                            : 48.0 KHz\nBit depth                                : 16 bits\nCompression mode                         : Lossy\nStream size                              : 235 MiB (5%)\nTitle                                    : Portugues AC3 5.1- BRENYS\nLanguage                                 : Portuguese\nDefault                                  : Yes\nForced                                   : No\n\nAudio #2\nID                                       : 3\nFormat                                   : DTS\nFormat/Info                              : Digital Theater Systems\nCodec ID                                 : A_DTS\nDuration                                 : 1h 25mn\nBit rate mode                            : Constant\nBit rate                                 : 1 510 Kbps\nChannel(s)                               : 6 channels\nChannel positions                        : Front: L C R, Side: L R, LFE\nSampling rate                            : 48.0 KHz\nBit depth                                : 16 bits\nCompression mode                         : Lossy\nStream size                              : 923 MiB (20%)\nLanguage                                 : English\nDefault                                  : No\nForced                                   : No\n\n\n\n\nSEED PLEASE\n\nENJOY...","torrent":{"xt":"urn:btih:ecf47e30e044ca8644007206d8970c695794d2c5","amp;dn":"Penthouse+North+2013+720p+BluRay+x264+DTS+PFa+DUAL+BRENYS","amp;tr":["udp%3A%2F%2Ftracker.openbittorrent.com%3A80","udp%3A%2F%2Fopen.demonii.com%3A1337","udp%3A%2F%2Ftracker.coppersurfer.tk%3A6969","udp%3A%2F%2Fexodus.desync.com%3A6969"],"infoHash":"ecf47e30e044ca8644007206d8970c695794d2c5","infoHashBuffer":{"type":"Buffer","data":[236,244,126,48,224,68,202,134,68,0,114,6,216,151,12,105,87,148,210,197]},"announce":[],"urlList":[]}}